<?xml version="1.0" standalone="no"?>
<!DOCTYPE svg PUBLIC "-//W3C//DTD SVG 20010904//EN"
 "http://www.w3.org/TR/2001/REC-SVG-20010904/DTD/svg10.dtd">
<svg version="1.0" xmlns="http://www.w3.org/2000/svg"
 width="1036.000000pt" height="1036.000000pt" viewBox="0 0 1036.000000 1036.000000"
 preserveAspectRatio="xMidYMid meet">
<metadata>
Created by potrace 1.14, written by Peter Selinger 2001-2017
</metadata>
<g transform="translate(0.000000,1036.000000) scale(0.100000,-0.100000)"
fill="#000000" stroke="none">
<path d="M4918 10355 c-2 -1 -53 -5 -115 -9 -61 -4 -119 -8 -130 -10 -10 -2
-49 -7 -88 -11 -38 -4 -77 -8 -85 -10 -8 -2 -44 -6 -80 -10 -36 -4 -67 -8 -70
-10 -3 -2 -26 -6 -50 -10 -173 -25 -505 -107 -720 -177 -505 -165 -949 -389
-1415 -715 -55 -39 -207 -154 -223 -170 -8 -7 -30 -26 -50 -41 -21 -15 -39
-29 -42 -32 -3 -3 -39 -34 -80 -69 -220 -189 -548 -544 -744 -806 -75 -100
-263 -379 -280 -415 -4 -8 -12 -24 -19 -35 -102 -167 -241 -440 -317 -625 -28
-69 -55 -134 -60 -145 -54 -125 -191 -569 -213 -695 -3 -14 -10 -43 -15 -65
-6 -22 -13 -53 -16 -70 -2 -16 -11 -66 -20 -110 -8 -44 -17 -98 -21 -120 -3
-22 -8 -53 -10 -70 -12 -71 -13 -85 -20 -151 -3 -38 -8 -82 -10 -99 -25 -197
-25 -824 -1 -975 2 -14 7 -59 11 -100 4 -41 9 -84 11 -95 1 -11 6 -40 9 -65 3
-25 8 -54 10 -65 3 -11 7 -38 10 -60 25 -179 128 -587 205 -808 211 -612 531
-1175 944 -1662 248 -293 539 -571 796 -761 36 -27 67 -51 70 -54 6 -7 157
-114 225 -160 239 -160 642 -373 920 -485 184 -75 518 -185 633 -210 9 -2 74
-17 145 -34 118 -29 356 -73 465 -86 26 -3 63 -8 82 -10 102 -13 258 -27 355
-31 107 -5 491 -5 535 0 19 2 80 7 135 11 55 3 118 8 140 11 253 29 466 67
728 130 9 2 25 6 35 8 56 13 253 74 393 122 524 180 1072 480 1499 821 60 47
223 184 260 217 79 72 344 339 402 406 91 104 98 111 157 185 31 39 58 72 61
75 18 17 183 249 254 357 107 165 181 292 275 478 67 131 98 197 157 330 96
219 231 638 279 865 23 110 55 274 59 305 3 22 8 54 11 70 10 56 14 90 20 150
4 33 8 70 10 83 2 13 7 65 10 115 4 51 9 110 11 132 4 52 5 563 0 595 -2 14
-7 72 -11 130 -4 58 -8 114 -10 125 -4 39 -17 140 -21 165 -2 14 -7 43 -9 65
-13 97 -59 328 -91 453 -19 76 -36 146 -39 156 -17 72 -97 313 -158 476 -81
217 -238 542 -365 752 -37 62 -69 117 -71 122 -8 20 -179 267 -249 361 -258
345 -583 680 -912 941 -41 32 -77 61 -80 64 -30 31 -336 242 -442 305 -388
230 -689 370 -1088 505 -71 24 -266 82 -320 95 -188 45 -242 57 -320 71 -14 2
-36 7 -50 9 -54 11 -76 15 -115 20 -22 3 -67 10 -100 15 -33 5 -82 11 -110 14
-27 3 -77 9 -110 12 -33 4 -78 8 -100 10 -49 5 -652 13 -657 9z"/>
</g>
</svg>
